# xmcd
#
# Track frame offsets:
#	150
#	6779
#	36630
#	56692
#	88702
#	111734
#	155699
#	170609
#	204704
#	221549
#	275451
#
# Disc length: 3955 seconds
#
# Revision: 1
# Processed by: cddbd v1.4PL0 Copyright (c) Steve Scherf et al.
# Submitted via: CDmax 2.0
#
DISCID=a80f710b
DTITLE=Acoustic Hot Tuna - Jorma, Jack and Barry - Live in Keene, NH 12.05.200
DTITLE=3 - d1
DYEAR=2003
DGENRE=Blues
TTITLE0=Intro
TTITLE1=True Religion
TTITLE2=I'll Be All Right Someday
TTITLE3=Death Don't have No Mercy
TTITLE4=Do Not Go Gentle
TTITLE5=Serpent Of Dreams
TTITLE6=I'll Let You Know Before I Leave
TTITLE7=Bread Line Blues
TTITLE8=Embryonic Journey
TTITLE9=99 year Blues
TTITLE10=Red River Blues
EXTD=Hot Tuna 12-05-03\t\t\nColonial Opera House\nKeene, NH\nw/Barry Mitterho
EXTD=ff - Mandolin,Banjo,Tenor Guitar, etc.\n\nEarthworks SR77->AD-20->NomadJ
EXTD=B3->CoolEditPro->\ntracked w/CDwaveCD1&AudioToolsCD2->FLAC\n671MB -> 1.4
EXTD=GB decoded\tA 2 CD's\n\nSet 1:\n1:  Intro\n2:  True Religion\n3:  I'll B
EXTD=e All Right Someday\n4:  Death Don't Have No Mercy\n5:  Do Not Go Gentle
EXTD=\n6:  Serpent Of Dreams\n7:  I'll Let You Know Before I Leave\n8:  Brea
EXTD=d Line Blues\n9:  Embryonic Journey\n10: 99 Year Blues\n11: Red River Bl
EXTD=ues\n\nSet 2:\n1:  Intro\n2:  Thimblefull (Spoonful Tease]\n3:  That'l
EXTD=l Never Happen No More\n4:  Smoked Rabbit (Smoke on the Water>White Rabb
EXTD=it tease]\n5:  Trouble In Mind\n6:  Keep Your Lamps Trimmed And Burning\
EXTD=n7:  I See The Light\n8:  Heart Temporary (New Song]\n9:  Prohibition Bl
EXTD=ues\n10: Living In The Moment\n11: Good Shepherd\n12: Just Because\n\nEn
EXTD=core:\n13: Hesitation Blues
EXTT0=
EXTT1=
EXTT2=
EXTT3=
EXTT4=
EXTT5=
EXTT6=
EXTT7=
EXTT8=
EXTT9=
EXTT10=
PLAYORDER=
